<svg xmlns="http://www.w3.org/2000/svg" xmlns:xlink="http://www.w3.org/1999/xlink" width="50" zoomAndPan="magnify" viewBox="0 0 37.5 37.499999" height="50" preserveAspectRatio="xMidYMid meet" version="1.0"><defs><g/></defs><path fill="#080341" d="M 8.671875 10.640625 L 7.691406 11.621094 L 7.691406 25.382812 L 8.671875 26.367188 L 23.417969 26.367188 L 24.402344 25.382812 L 24.402344 21.859375 L 27.636719 25.097656 L 29.316406 24.402344 L 29.316406 12.605469 L 27.636719 11.910156 L 24.402344 15.148438 L 24.402344 11.621094 L 23.417969 10.640625 Z M 24.402344 17.925781 L 24.402344 19.078125 L 27.351562 22.027344 L 27.351562 14.976562 Z M 9.65625 24.402344 L 9.65625 12.605469 L 22.433594 12.605469 L 22.433594 24.402344 Z M 9.65625 24.402344 " fill-opacity="1" fill-rule="evenodd"/><g fill="#000000" fill-opacity="1"><g transform="translate(11.678474, 23.885782)"><g><path d="M 5.6875 -4.828125 L 8.242188 -4.828125 L 8.242188 -6.976562 L 5.6875 -6.976562 L 5.6875 -9.546875 L 3.519531 -9.546875 L 3.519531 -6.976562 L 0.941406 -6.976562 L 0.941406 -4.828125 L 3.519531 -4.828125 L 3.519531 -2.25 L 5.6875 -2.25 Z M 5.6875 -4.828125 "/></g></g></g></svg>