<?xml version="1.0" encoding="iso-8859-1"?>
<!-- Uploaded to: SVG Repo, www.svgrepo.com, Generator: SVG Repo Mixer Tools -->
<svg height="800px" width="800px" version="1.1" id="Capa_1" xmlns="http://www.w3.org/2000/svg" xmlns:xlink="http://www.w3.org/1999/xlink" 
	 viewBox="0 0 327.241 327.241" xml:space="preserve">
<g>
	<g>
		<path style="fill:#010002;" d="M81.627,123.311H69.693H37.866H25.932H0v166.768h245.614v-31.451v-11.934v-30.831V203.93v-80.618
			H81.627z M153.534,219.867l-34.542,25.162c-3.019,2.184-6.564,3.335-10.251,3.335c-2.727,0-5.448-0.65-7.882-1.886
			c-5.871-3.001-9.517-8.938-9.517-15.508v-50.307c0-6.564,3.64-12.507,9.499-15.502c5.77-2.924,12.948-2.345,18.145,1.432
			l34.536,25.156c4.481,3.282,7.148,8.539,7.148,14.058S158.003,216.591,153.534,219.867z"/>
		<path style="fill:#010002;" d="M111.962,176.243c-0.937-0.68-2.053-1.044-3.216-1.044c-0.859,0-1.718,0.203-2.488,0.603
			c-1.838,0.931-2.983,2.798-2.983,4.857v50.307c0,2.065,1.146,3.926,2.995,4.869c1.784,0.913,4.046,0.734,5.71-0.465l34.512-25.144
			c1.396-1.026,2.244-2.679,2.244-4.415s-0.847-3.389-2.255-4.427L111.962,176.243z"/>
	</g>
	<polygon style="fill:#010002;" points="283.48,203.93 283.48,215.863 283.48,246.694 257.548,246.694 257.548,215.863 
		257.548,203.93 257.548,111.378 81.627,111.378 69.693,111.378 37.866,111.378 37.866,79.92 69.693,79.92 81.627,79.92 
		283.48,79.92 	"/>
	<polygon style="fill:#010002;" points="327.241,203.93 295.414,203.93 295.414,67.987 81.627,67.987 81.627,37.162 327.241,37.162 
			"/>
</g>
</svg>